<svg xmlns="http://www.w3.org/2000/svg" version="1.1" xmlns:xlink="http://www.w3.org/1999/xlink" xmlns:svgjs="http://svgjs.com/svgjs" width="1920" height="1080" preserveAspectRatio="none" viewBox="0 0 1920 1080"><g mask="url(&quot;#SvgjsMask1011&quot;)" fill="none"><rect width="1920" height="1080" x="0" y="0" fill="rgba(34, 38, 41, 1)"></rect><path d="M30 0C152.9 85.5 166.63 187.83 270 187.83C345.01 187.83 307.01 55.48 386.76 0C442.01 -38.44 463.38 0 540 0C675 0 675 0 810 0C938.87 0 944.09 -9.27 1067.73 0C1079.09 0.85 1068.63 19.1 1080 20.25C1209.76 33.31 1220.88 37.33 1350 28.42C1367.62 27.2 1355.92 1.85 1373.48 0C1490.92 -12.36 1496.74 0 1620 0C1755 0 1755 0 1890 0C1902.28 0 1902.9 -3.7 1914.55 0C2037.9 39.16 2088.18 6.71 2160 85.71C2210.91 141.71 2160 177.86 2160 270C2160 405 2160 405 2160 540C2160 675 2160 675 2160 810C2160 915.65 2188.38 930.48 2160 1021.3C2146.2 1065.48 2123.74 1069.54 2075.63 1080C1988.74 1098.89 1982.82 1080 1890 1080C1755 1080 1755 1080 1620 1080C1485 1080 1485 1080 1350 1080C1215 1080 1215 1080 1080 1080C958.5 1080 957.01 1086.16 837 1080C822.01 1079.23 822.08 1066.15 810 1066.15C802.84 1066.15 807.3 1079.55 798.51 1080C672.3 1086.47 669.26 1080 540 1080C440.41 1080 424.3 1111.06 340.82 1080C289.3 1060.83 313.83 979.53 270 979.53C208.74 979.53 207.33 1051.47 130.65 1080C72.33 1101.7 21.3 1124.02 0 1080C-44.02 989.02 0 945 0 810C0 675 0 675 0 540C0 405 0 405 0 270C0 135 -13.5 121.5 0 0C1.5 -13.5 17.9 -8.42 30 0" stroke="rgba(71, 75, 79, 1)" stroke-width="2"></path><path d="M1620 141.75C1562.68 141.75 1541.53 199.27 1477.5 270C1406.53 348.4 1405.99 350.57 1350 440C1321.47 485.57 1308.46 492.53 1308.46 540C1308.46 570.65 1326.86 570.09 1350 596.25C1446.28 705.09 1442.82 710.27 1547.31 810C1577.82 839.12 1580.65 853.95 1620 853.95C1695.75 853.95 1703.9 843.01 1777.5 810C1838.9 782.46 1852.75 786.5 1890 732.86C1946.5 651.5 1965 627.71 1965 540C1965 496.84 1927.22 505.86 1890 471.12C1782.6 370.86 1767.23 381.58 1675.76 270C1632.23 216.9 1661.81 141.75 1620 141.75" stroke="rgba(71, 75, 79, 1)" stroke-width="2"></path><path d="M1080 787.5C1063.99 787.5 1047.86 795 1047.86 810C1047.86 835.6 1064.07 868.7 1080 868.7C1095.84 868.7 1111.4 835.69 1111.4 810C1111.4 795.09 1095.76 787.5 1080 787.5" stroke="rgba(71, 75, 79, 1)" stroke-width="2"></path><path d="M652.5 270C660.6 146.27 523.4 72.53 565.71 0C602.15 -62.47 687.86 0 810 0C887.72 0 909.7 -39.02 965.45 0C1044.7 55.48 1004.01 114.81 1080 189C1142.28 249.81 1217.13 199.94 1242 270C1279.44 375.44 1253.01 419.03 1204.62 540C1172.01 621.53 1149.58 615.82 1080 675C990.84 750.82 978.26 736.4 887.14 810C843.26 845.44 855.46 893.08 810 893.08C739.74 893.08 725.52 861.4 655.71 810C590.52 762 597.86 752.14 540 694.29C462.86 617.14 385.71 616.25 385.71 540C385.71 465.47 465.08 468.55 540 392.73C598.48 333.55 647.74 342.64 652.5 270" stroke="rgba(71, 75, 79, 1)" stroke-width="2"></path><path d="M1749.13 270C1749.13 184.37 1798.98 104.55 1890 87.46C2004.42 65.98 2053.38 120.77 2160 192.86C2188.38 212.04 2160 231.43 2160 270C2160 405 2160 405 2160 540C2160 675 2160 675 2160 810C2160 842.29 2178.84 874.57 2160 874.57C2121.72 874.57 2065.39 864.7 2045.77 810C2005.39 697.42 2084.4 656.23 2040 540C2006.52 452.35 1964.63 471.52 1890 402.24C1819.2 336.52 1749.13 341.76 1749.13 270" stroke="rgba(71, 75, 79, 1)" stroke-width="2"></path><path d="M0 495C21.71 495 38.74 511.68 67.5 540C173.74 644.63 167.87 651.3 270 760.91C293.66 786.3 319.09 792.18 319.09 810C319.09 823.01 292.04 810.34 270 822.56C132.5 898.79 86.56 990.93 0 986.9C-48.44 984.65 0 898.45 0 810C0 675 0 675 0 540C0 517.5 -12.04 495 0 495" stroke="rgba(71, 75, 79, 1)" stroke-width="2"></path><path d="M810 421.2C753.79 421.2 680.87 479.26 680.87 540C680.87 603.22 754.34 669.13 810 669.13C855.13 669.13 882.44 603.91 882.44 540C882.44 479.94 854.57 421.2 810 421.2" stroke="rgba(71, 75, 79, 1)" stroke-width="2"></path><path d="M1268.37 810C1299.08 765.28 1310.92 736.88 1350 736.88C1385.49 736.88 1377.54 781.05 1417.5 810C1512.54 878.83 1518.18 872.19 1620 932.44C1746.33 1007.19 1873.8 1040.43 1873.8 1080C1873.8 1114.21 1746.9 1080 1620 1080C1485 1080 1485 1080 1350 1080C1232.18 1080 1131.96 1138.21 1114.36 1080C1091.14 1003.21 1181.26 936.84 1268.37 810" stroke="rgba(71, 75, 79, 1)" stroke-width="2"></path><path d="M451.48 1080C451.48 1014.86 490.66 893.79 540 893.79C592.36 893.79 654.89 1018.95 654.89 1080C654.89 1112.06 597.44 1080 540 1080C495.74 1080 451.48 1107.97 451.48 1080" stroke="rgba(71, 75, 79, 1)" stroke-width="2"></path><path d="M810 146.25C774.46 146.25 726.43 48.88 726.43 0C726.43 -24.25 768.21 0 810 0C836.59 0 863.18 -18.62 863.18 0C863.18 54.5 842.83 146.25 810 146.25" stroke="rgba(71, 75, 79, 1)" stroke-width="2"></path><path d="M1822.5 270C1822.5 228.97 1844.76 182.54 1890 182.54C1982.01 182.54 2097 231.59 2097 270C2097 307 1986.14 333.37 1890 333.37C1848.89 333.37 1822.5 304.38 1822.5 270" stroke="rgba(71, 75, 79, 1)" stroke-width="2"></path><path d="M1047.07 540C1047.07 507.21 1066.23 465 1080 465C1093.08 465 1100.77 505.02 1100.77 540C1100.77 553.77 1091.66 562.5 1080 562.5C1064.81 562.5 1047.07 555.96 1047.07 540" stroke="rgba(71, 75, 79, 1)" stroke-width="2"></path><path d="M2115 540C2115 448.76 2148.59 355.91 2160 355.91C2171.09 355.91 2160 447.96 2160 540C2160 609.83 2170.97 679.66 2160 679.66C2148.47 679.66 2115 610.64 2115 540" stroke="rgba(71, 75, 79, 1)" stroke-width="2"></path><path d="M1237.09 1080C1237.09 1022.28 1269.67 917.06 1350 902.57C1461.12 882.53 1487.97 950.68 1620 1010.93C1682.37 1039.39 1738.8 1061.48 1738.8 1080C1738.8 1096.01 1679.4 1080 1620 1080C1485 1080 1485 1080 1350 1080C1293.55 1080 1237.09 1110.99 1237.09 1080" stroke="rgba(71, 75, 79, 1)" stroke-width="2"></path></g><defs><mask id="SvgjsMask1011"><rect width="1920" height="1080" fill="#ffffff"></rect></mask></defs></svg>